<svg width="20" height="24" viewBox="0 0 20 24" fill="none" xmlns="http://www.w3.org/2000/svg">
<path d="M8 1C8 0.447716 7.55228 0 7 0H1C0.447715 0 0 0.447715 0 1V23C0 23.5523 0.447715 24 1 24H7C7.55228 24 8 23.5523 8 23V1ZM14 12C15.5913 12 17.1174 11.3679 18.2426 10.2426C19.3679 9.11742 20 7.5913 20 6C20 4.4087 19.3679 2.88258 18.2426 1.75736C17.1174 0.632141 15.5913 0 14 0C12.4087 0 10.8826 0.632141 9.75736 1.75736C8.63214 2.88258 8 4.4087 8 6C8 7.5913 8.63214 9.11742 9.75736 10.2426C10.8826 11.3679 12.4087 12 14 12ZM14 24C15.5913 24 17.1174 23.3679 18.2426 22.2426C19.3679 21.1174 20 19.5913 20 18C20 16.4087 19.3679 14.8826 18.2426 13.7574C17.1174 12.6321 15.5913 12 14 12C12.4087 12 10.8826 12.6321 9.75736 13.7574C8.63214 14.8826 8 16.4087 8 18C8 19.5913 8.63214 21.1174 9.75736 22.2426C10.8826 23.3679 12.4087 24 14 24Z" fill="#B54769"/>
</svg>
