<svg width="53" height="16" viewBox="0 0 53 16" fill="none" xmlns="http://www.w3.org/2000/svg">
<path d="M0.100852 15V0.454545H3.61648V6.29261H9.34801V0.454545H12.8565V15H9.34801V9.15483H3.61648V15H0.100852Z" fill="#FF004F"/>
<path d="M17.7322 15H14.4368L19.4581 0.454545H23.4212L28.4354 15H25.1399L21.4964 3.77841H21.3828L17.7322 15ZM17.5263 9.28267H25.3104V11.6832H17.5263V9.28267ZM30.1861 15V0.454545H35.9247C37.0232 0.454545 37.9607 0.651041 38.7372 1.04403C39.5185 1.43229 40.1127 1.9839 40.5199 2.69886C40.9318 3.40909 41.1378 4.24479 41.1378 5.20597C41.1378 6.17187 40.9295 7.00284 40.5128 7.69886C40.0961 8.39015 39.4924 8.92045 38.7017 9.28977C37.9157 9.65909 36.964 9.84375 35.8466 9.84375H32.0043V7.37216H35.3494C35.9366 7.37216 36.4242 7.29167 36.8125 7.13068C37.2008 6.9697 37.4896 6.72822 37.679 6.40625C37.8731 6.08428 37.9702 5.68419 37.9702 5.20597C37.9702 4.72301 37.8731 4.31581 37.679 3.98438C37.4896 3.65294 37.1984 3.40199 36.8054 3.23153C36.4171 3.05634 35.9271 2.96875 35.3352 2.96875H33.2614V15H30.1861ZM38.0412 8.38068L41.6562 15H38.2614L34.7244 8.38068H38.0412ZM46.3864 0.454545V15H43.3111V0.454545H46.3864ZM50.6282 15.1847C50.1594 15.1847 49.757 15.0189 49.4208 14.6875C49.0894 14.3513 48.9237 13.9489 48.9237 13.4801C48.9237 13.0161 49.0894 12.6184 49.4208 12.2869C49.757 11.9555 50.1594 11.7898 50.6282 11.7898C51.0827 11.7898 51.4805 11.9555 51.8214 12.2869C52.1623 12.6184 52.3327 13.0161 52.3327 13.4801C52.3327 13.7926 52.2522 14.0791 52.0913 14.3395C51.935 14.5952 51.729 14.8011 51.4734 14.9574C51.2177 15.1089 50.936 15.1847 50.6282 15.1847Z" fill="#ECECEC"/>
</svg>
