<svg width="40" height="40" viewBox="0 0 40 40" fill="none" xmlns="http://www.w3.org/2000/svg">
<g clip-path="url(#clip0_101_6)">
<path d="M20.0004 0C13.46 0 8.1 5.344 8.1 11.8664C8.1 14.3936 8.9072 16.7424 10.2732 18.6728L18.548 32.978C19.7068 34.492 20.4772 34.2044 21.4408 32.898L30.568 17.366C30.752 17.0324 30.8968 16.6772 31.0228 16.3144C31.602 14.903 31.8998 13.392 31.8996 11.8664C31.9 5.344 26.5416 0 20.0004 0ZM20.0004 5.56C23.5228 5.56 26.3236 8.35439 26.3236 11.8664C26.3236 15.3784 23.5228 18.1716 20.0004 18.1716C16.4784 18.1716 13.6764 15.3788 13.6764 11.8664C13.6764 8.35439 16.4784 5.5604 20.0004 5.5604V5.56Z" fill="#F35C8C"/>
<path d="M27.5652 19.5632L27.546 19.6136C27.552 19.5984 27.5568 19.5828 27.5628 19.5676L27.5652 19.5632ZM13.6024 27.6228C7.952 28.4212 4 30.3312 4 33.1428C4 36.93 10.6032 40 20 40C29.3968 40 36 36.93 36 33.1428C36 30.3312 32.0484 28.4212 26.3984 27.6228L25.6156 28.9556C29.874 29.5464 32.8 30.788 32.8 32.2288C32.8 34.2488 27.0692 35.886 20 35.886C12.9308 35.886 7.2 34.2488 7.2 32.2288C7.1996 30.7928 10.1064 29.5524 14.378 28.9592C14.12 28.5136 13.8608 28.0688 13.6024 27.6228Z" fill="#F35C8C"/>
</g>
<defs>
<clipPath id="clip0_101_6">
<rect width="40" height="40" fill="white"/>
</clipPath>
</defs>
</svg>
